<svg aria-hidden="true" style="position: absolute; width: 0; height: 0; overflow: hidden;" version="1.1" xmlns="http://www.w3.org/2000/svg" xmlns:xlink="http://www.w3.org/1999/xlink">
<defs>
<symbol id="icon-clear" viewBox="0 0 24 24">
<path d="M18.984 6.422l-5.578 5.578 5.578 5.578-1.406 1.406-5.578-5.578-5.578 5.578-1.406-1.406 5.578-5.578-5.578-5.578 1.406-1.406 5.578 5.578 5.578-5.578z"></path>
</symbol>
<symbol id="icon-add-new" viewBox="0 0 24 24">
<path d="M5 13h6v6c0 0.552 0.448 1 1 1s1-0.448 1-1v-6h6c0.552 0 1-0.448 1-1s-0.448-1-1-1h-6v-6c0-0.552-0.448-1-1-1s-1 0.448-1 1v6h-6c-0.552 0-1 0.448-1 1s0.448 1 1 1z"></path>
</symbol>
<symbol id="icon-check-circle" viewBox="0 0 24 28">
<path d="M20.062 11.469c0-0.266-0.094-0.531-0.281-0.719l-1.422-1.406c-0.187-0.187-0.438-0.297-0.703-0.297s-0.516 0.109-0.703 0.297l-6.375 6.359-3.531-3.531c-0.187-0.187-0.438-0.297-0.703-0.297s-0.516 0.109-0.703 0.297l-1.422 1.406c-0.187 0.187-0.281 0.453-0.281 0.719s0.094 0.516 0.281 0.703l5.656 5.656c0.187 0.187 0.453 0.297 0.703 0.297 0.266 0 0.531-0.109 0.719-0.297l8.484-8.484c0.187-0.187 0.281-0.438 0.281-0.703zM24 14c0 6.625-5.375 12-12 12s-12-5.375-12-12 5.375-12 12-12 12 5.375 12 12z"></path>
</symbol>
<symbol id="icon-notice" viewBox="0 0 32 32">
<path d="M15.5 3c-7.456 0-13.5 6.044-13.5 13.5s6.044 13.5 13.5 13.5 13.5-6.044 13.5-13.5-6.044-13.5-13.5-13.5zM15.5 27c-5.799 0-10.5-4.701-10.5-10.5s4.701-10.5 10.5-10.5 10.5 4.701 10.5 10.5-4.701 10.5-10.5 10.5zM15.5 10c-0.828 0-1.5 0.671-1.5 1.5v5.062c0 0.828 0.672 1.5 1.5 1.5s1.5-0.672 1.5-1.5v-5.062c0-0.829-0.672-1.5-1.5-1.5zM15.5 20c-0.828 0-1.5 0.672-1.5 1.5s0.672 1.5 1.5 1.5 1.5-0.672 1.5-1.5-0.672-1.5-1.5-1.5z"></path>
</symbol>
<symbol id="icon-trashcan" viewBox="0 0 32 32">
<path d="M8 26c0 1.656 1.343 3 3 3h10c1.656 0 3-1.344 3-3l2-16h-20l2 16zM19 13h2v13h-2v-13zM15 13h2v13h-2v-13zM11 13h2v13h-2v-13zM25.5 6h-6.5c0 0-0.448-2-1-2h-4c-0.553 0-1 2-1 2h-6.5c-0.829 0-1.5 0.671-1.5 1.5s0 1.5 0 1.5h22c0 0 0-0.671 0-1.5s-0.672-1.5-1.5-1.5z"></path>
</symbol>
<symbol id="icon-error" viewBox="0 0 24 24">
<path d="M12.984 12.984v-6h-1.969v6h1.969zM12.984 17.016v-2.016h-1.969v2.016h1.969zM12 2.016q4.125 0 7.055 2.93t2.93 7.055-2.93 7.055-7.055 2.93-7.055-2.93-2.93-7.055 2.93-7.055 7.055-2.93z"></path>
</symbol>
<symbol id="icon-loader" viewBox="0 0 24 24">
<path d="M11 2v4c0 0.552 0.448 1 1 1s1-0.448 1-1v-4c0-0.552-0.448-1-1-1s-1 0.448-1 1zM11 18v4c0 0.552 0.448 1 1 1s1-0.448 1-1v-4c0-0.552-0.448-1-1-1s-1 0.448-1 1zM4.223 5.637l2.83 2.83c0.391 0.391 1.024 0.391 1.414 0s0.391-1.024 0-1.414l-2.83-2.83c-0.391-0.391-1.024-0.391-1.414 0s-0.391 1.024 0 1.414zM15.533 16.947l2.83 2.83c0.391 0.391 1.024 0.391 1.414 0s0.391-1.024 0-1.414l-2.83-2.83c-0.391-0.391-1.024-0.391-1.414 0s-0.391 1.024 0 1.414zM2 13h4c0.552 0 1-0.448 1-1s-0.448-1-1-1h-4c-0.552 0-1 0.448-1 1s0.448 1 1 1zM18 13h4c0.552 0 1-0.448 1-1s-0.448-1-1-1h-4c-0.552 0-1 0.448-1 1s0.448 1 1 1zM5.637 19.777l2.83-2.83c0.391-0.391 0.391-1.024 0-1.414s-1.024-0.391-1.414 0l-2.83 2.83c-0.391 0.391-0.391 1.024 0 1.414s1.024 0.391 1.414 0zM16.947 8.467l2.83-2.83c0.391-0.391 0.391-1.024 0-1.414s-1.024-0.391-1.414 0l-2.83 2.83c-0.391 0.391-0.391 1.024 0 1.414s1.024 0.391 1.414 0z"></path>
</symbol>
<symbol id="icon-smile" viewBox="0 0 32 32">
<path d="M16 32c8.837 0 16-7.163 16-16s-7.163-16-16-16-16 7.163-16 16 7.163 16 16 16zM16 3c7.18 0 13 5.82 13 13s-5.82 13-13 13-13-5.82-13-13 5.82-13 13-13zM8 10c0-1.105 0.895-2 2-2s2 0.895 2 2c0 1.105-0.895 2-2 2s-2-0.895-2-2zM20 10c0-1.105 0.895-2 2-2s2 0.895 2 2c0 1.105-0.895 2-2 2s-2-0.895-2-2zM22.003 19.602l2.573 1.544c-1.749 2.908-4.935 4.855-8.576 4.855s-6.827-1.946-8.576-4.855l2.573-1.544c1.224 2.036 3.454 3.398 6.003 3.398s4.779-1.362 6.003-3.398z"></path>
</symbol>
</defs>
</svg>
